<svg width="1440" height="1366" viewBox="0 0 1440 1366" fill="none" xmlns="http://www.w3.org/2000/svg">
<path fill-rule="evenodd" clip-rule="evenodd" d="M-119 956.227C-119 956.227 -99.4562 626.86 114.836 626.86C386.14 626.86 409.994 783.014 621.479 690.608C822.926 602.588 741.324 324.386 1041.37 271.755C1056.32 269.132 1072.22 267.069 1089.15 265.618C1445.81 235.052 1439.9 0 1439.9 0V1365.91H-119V956.227Z" fill="#F5F5F5"/>
<path fill-rule="evenodd" clip-rule="evenodd" d="M1301.79 1331.02C1247.03 1273.04 1220.63 1373.41 1153.3 1382.12C1085.96 1390.83 1118.1 1543.92 1118.1 1543.92C1118.1 1543.92 1018.53 1520.73 1006.31 1534.3C994.084 1547.88 978.228 1598.1 1036.79 1650.83C1095.36 1703.56 1101.32 1639.47 1101.32 1639.47C1101.32 1639.47 1184.65 1552.2 1221.24 1547.39C1241.49 1544.72 1717.55 1570.34 1553.98 1381.42C1390.42 1192.5 1356.55 1389 1301.79 1331.02Z" fill="url(#paint0_radial_0_13)"/>
<mask id="mask0_0_13" style="mask-type:alpha" maskUnits="userSpaceOnUse" x="994" y="1297" width="595" height="375">
<path fill-rule="evenodd" clip-rule="evenodd" d="M1301.79 1331.02C1247.03 1273.04 1220.63 1373.41 1153.3 1382.12C1085.96 1390.83 1118.1 1543.92 1118.1 1543.92C1118.1 1543.92 1018.53 1520.73 1006.31 1534.3C994.084 1547.88 978.228 1598.1 1036.79 1650.83C1095.36 1703.56 1101.32 1639.47 1101.32 1639.47C1101.32 1639.47 1184.65 1552.2 1221.24 1547.39C1241.49 1544.72 1717.55 1570.34 1553.98 1381.42C1390.42 1192.5 1356.55 1389 1301.79 1331.02Z" fill="white"/>
</mask>
<g mask="url(#mask0_0_13)">
</g>
<defs>
<radialGradient id="paint0_radial_0_13" cx="0" cy="0" r="1" gradientUnits="userSpaceOnUse" gradientTransform="translate(1246.84 1482.77) rotate(-51.9482) scale(225.676 162.353)">
<stop stop-color="#43A047"/>
<stop offset="0.201704" stop-color="#53AA57"/>
<stop offset="1" stop-color="#81C784"/>
</radialGradient>
</defs>
</svg>
