<svg width="123" height="36" fill="none" xmlns="http://www.w3.org/2000/svg"><path fill-rule="evenodd" clip-rule="evenodd" d="m45.973 1.868.627 3.697h18.014L44.624 31.32l.532 3.651h24.566l-.483-3.651H49.682L69.864 5.565l-.482-3.697H45.973ZM90.168 29.227c-1.268 1.591-2.962 2.386-5.081 2.386-2.152 0-3.838-.787-5.058-2.362-1.22-1.572-1.83-3.627-1.83-6.157.03-2.401.682-4.397 1.95-5.99 1.27-1.588 2.962-2.385 5.082-2.385 2.152 0 3.837.79 5.058 2.362 1.22 1.574 1.83 3.627 1.83 6.157-.034 2.403-.682 4.4-1.95 5.989m1.205-16.941c-1.753-1.038-3.798-1.558-6.143-1.558-2.378 0-4.45.52-6.215 1.558-1.765 1.038-3.13 2.498-4.093 4.38-.964 1.884-1.444 4.041-1.444 6.477 0 2.466.463 4.64 1.396 6.522.931 1.882 2.272 3.342 4.023 4.383 1.749 1.036 3.796 1.557 6.14 1.557 2.376 0 4.455-.521 6.237-1.557 1.782-1.04 3.157-2.5 4.12-4.383.962-1.881 1.444-4.041 1.444-6.476 0-2.464-.473-4.639-1.42-6.523-.948-1.882-2.296-3.342-4.045-4.38" fill="#13AA57"/><mask id="a" style="mask-type:alpha" maskUnits="userSpaceOnUse" x="102" y="11" width="21" height="25"><path fill-rule="evenodd" clip-rule="evenodd" d="M102.186 11.36h20.472v24.39h-20.472V11.36Z" fill="#fff"/></mask><g mask="url(#a)"><path fill-rule="evenodd" clip-rule="evenodd" d="M118.034 11.36v16.651c-1.254 1.102-2.52 2.004-3.806 2.701-1.285.7-2.474 1.046-3.564 1.046-1.445 0-2.448-.444-3.01-1.338-.562-.893-.844-2.2-.844-3.92V11.36h-4.624V26.94c0 2.696.618 4.836 1.855 6.425 1.235 1.592 3.123 2.386 5.658 2.386 1.544 0 3.102-.365 4.674-1.094a16.792 16.792 0 0 0 4.24-2.8l.818 3.117h3.227V11.36h-4.624Z" fill="#13AA57"/></g><mask id="b" style="mask-type:alpha" maskUnits="userSpaceOnUse" x="0" y="0" width="34" height="35"><path fill-rule="evenodd" clip-rule="evenodd" d="M0 .438h33.73v33.98H0V.438Z" fill="#fff"/></mask><g mask="url(#b)"><path fill-rule="evenodd" clip-rule="evenodd" d="M16.865.437C7.551.437 0 8.07 0 17.483c0 8.346 5.942 15.28 13.78 16.748a42.452 42.452 0 0 1-2.838-10.355c-.41-2.9-.473-5.523-.379-7.76a23.385 23.385 0 0 0 1.259 4.58 23.25 23.25 0 0 0 2.142 4.2c0-2.126.289-5.437 1.888-9.037a21.573 21.573 0 0 1 2.433-4.156 34.718 34.718 0 0 0-1.3 8.1 34.72 34.72 0 0 0 .251 5.855 13.328 13.328 0 0 0 2.393-2.671 13.538 13.538 0 0 0 1.888-4.2 42.172 42.172 0 0 1-.755 8.526 42.135 42.135 0 0 1-2.033 7.105c8.437-.938 15.001-8.16 15.001-16.935C33.73 8.069 26.18.437 16.865.437" fill="#13AA57"/></g></svg>